PathFileType	4	(X/Y/Z)	Patient4_TMGait_0pt3_03_left_28.trc.trc
DataRate	CameraRate	NumFrames	NumMarkers	Units	OrigDataRate	OrigDataStartFrame	OrigNumFrames
52.434456928839	52.434456928839	5	33	mm	52.434456928839	53	       141
Frame#	Time	Sacral			L.Shoulder			Chest			R.Shoulder			Neck			R.ASIS			L.ASIS			R.Thigh.Superior			R.Thigh.Lateral			R.Thigh.Inferior			R.Patella			L.Thigh.Superior			L.Thigh.Lateral			L.Thigh.Inferior			L.Patella			L.Shank.Superior			L.Shank.Lateral			L.Shank.Inferior			R.Shank.Superior			R.Shank.Lateral			R.Shank.Inferior			R.Heel			R.Midfoot.Superior			R.Midfoot.Lateral			R.Toe			L.Heel			L.Midfoot.Lateral			L.Midfoot.Superior			L.Toe			L.Elbow			L.Wrist			R.Elbow			R.Wrist			
		X1	Y1	Z1	X2	Y2	Z2	X3	Y3	Z3	X4	Y4	Z4	X5	Y5	Z5	X6	Y6	Z6	X7	Y7	Z7	X8	Y8	Z8	X9	Y9	Z9	X10	Y10	Z10	X11	Y11	Z11	X12	Y12	Z12	X13	Y13	Z13	X14	Y14	Z14	X15	Y15	Z15	X16	Y16	Z16	X17	Y17	Z17	X18	Y18	Z18	X19	Y19	Z19	X20	Y20	Z20	X21	Y21	Z21	X22	Y22	Z22	X23	Y23	Z23	X24	Y24	Z24	X25	Y25	Z25	X26	Y26	Z26	X27	Y27	Z27	X28	Y28	Z28	X29	Y29	Z29	X30	Y30	Z30	X31	Y31	Z31	X32	Y32	Z32	X33	Y33	Z33	

53	50.391714285714	717.048774964665	1001.711106684142	474.801081823430	909.025010313587	1425.051877690171	291.627161001148	1002.025935525947	1356.564336063151	458.487112444578	914.906866824372	1433.978825144477	627.138769966946	882.212290163168	1490.262336784481	448.835524761786	941.634410503329	937.382043576691	601.179112972794	939.172793513304	953.997408010855	327.172980529053	993.262537543674	738.061835201762	582.507314318185	921.029920456553	629.478802821587	652.206673831400	1004.096404621143	571.021196689746	578.532024123381	998.742180596110	461.916810269088	604.753074039558	1000.486427059165	752.221153020567	368.831476134703	929.060267520480	625.537698190566	309.837511067875	1016.649573702558	558.542144481714	381.933683381844	1022.219412451064	485.749894552708	391.500501322052	989.645692533172	411.324917797948	384.381797732221	897.158118071579	300.829088865309	330.951076586608	935.941889672875	188.309953530049	405.631101190476	917.506511304643	397.842245866784	613.921915367020	794.211031127087	367.184884329137	673.780776275391	775.443361222034	256.375918860842	629.888589616093	573.112815822991	209.079092714022	600.306533246078	731.449223732625	132.703034408211	649.614780389948	623.033044411489	147.745505511698	678.207060130506	782.848245188312	30.077380097383	681.117836938994	798.509903114023	38.031065813046	443.425589936225	874.676274355230	36.005029367308	364.756330191168	957.819880463185	95.356416013567	395.552573627539	1086.640267559041	42.773631629992	368.875242432439	947.498179895801	1081.861308194877	155.603839127128	1100.701494092940	869.763917321158	172.717743025662	982.269372854871	1092.301583528343	750.519845409500	1180.026782154382	925.595013057786	769.397593451575	
54	50.410785714286	715.752805199712	999.152205685304	470.474246868263	910.258040670222	1424.286989230453	291.367225662249	1000.621447680382	1354.804663899858	459.235166445896	910.825416164211	1430.748737352681	627.207195233569	881.341230943024	1488.513414360542	448.803015846856	939.441969539694	936.328308159325	599.230542273211	939.854391799904	952.194773531806	325.236224788961	996.539781453720	739.527086380852	579.761294303599	927.700121297442	629.493568337539	649.322960655977	1012.088159184046	572.936459621972	575.046325524312	1008.833089337032	462.694424885815	601.639295174363	1002.069737890156	750.901829313959	367.981345914144	931.799001036782	623.533642801707	309.387667249602	1019.177082309159	557.140180818780	382.560846958651	1025.018003428992	483.841055987458	392.380944552491	990.869939042070	409.123833659206	385.140459989075	896.767963942408	300.214249834456	331.250836930437	932.726518815364	187.130071082748	406.156154419616	926.184766624394	398.909829198602	611.032992195187	801.375156583309	371.431722971780	669.764187800869	780.907445704293	260.596684460032	626.931158099026	578.605052576900	219.143832156513	594.679287601476	733.689698133415	137.372448680099	647.482817645714	625.069475208668	156.739471019972	674.077800667483	780.376745172507	30.192946219755	681.405563592780	792.885203257282	38.179799278380	443.365170725479	869.074901493920	36.088109009646	364.779628456090	952.354785676490	95.213604153971	395.778869517888	1081.088993518517	42.231886367712	368.869694498082	955.246239093007	1082.922623445148	153.291202908533	1115.687104264500	876.322056569594	172.066868503834	963.439280507921	1084.608106285800	747.966772563093	1145.648652962888	901.469903896991	770.084121089115	
55	50.429857142857	714.397659427069	996.626259861436	466.421692070865	911.494319507313	1423.439238812086	291.415501815386	999.164596039055	1353.009152715268	460.284553959095	906.592727648864	1427.481341522654	627.502938278303	880.428263677896	1486.728815411974	449.031798991099	937.091083006983	935.222496424945	597.671756192655	940.493446423645	950.374204222370	323.675373247783	999.491847573274	741.172977343011	577.132538012714	934.136809214136	629.677402846426	646.472700618874	1019.714794093056	575.170669267869	571.526325123249	1018.686795276333	463.855131921025	598.346953722691	1003.483318378232	749.494426782754	367.374307577874	934.240662672885	621.513226499678	309.124923858751	1021.340300328749	555.676942523088	383.385826285053	1027.405867032072	481.926361002467	393.485686708239	991.767842034914	406.940707707642	386.037020581575	896.145359628691	299.581423110687	331.627829760593	929.383569496360	185.965438685955	406.707608902043	934.828359887580	400.140300622769	607.964162667963	808.603190976794	375.319687180302	665.515670968458	786.818953409590	264.436429007584	623.627551504952	584.529633257621	227.435675091010	588.697363138638	737.055795961239	141.977448351209	644.991402079096	628.156877845165	164.618730408769	669.631448496780	779.988206657380	30.849846845182	681.464263606581	787.243225539743	38.307073353749	443.291374592891	863.464041526174	36.151890364273	364.783910009443	946.867131078391	95.071010555681	395.996991064660	1075.520397351112	41.739932053539	368.862476995054	962.897778904943	1084.079555451179	151.263501458648	1130.846397457509	883.616437441933	171.790150118833	943.821578304449	1077.530956708506	745.182562068945	1108.883831703682	879.129716938567	769.799992616256	
56	50.448928571429	712.984469041579	994.317561315823	462.660784270787	912.770672150066	1422.628650515190	291.773033808068	997.686698500256	1351.319097549404	461.642705785920	902.250940320479	1424.371818098281	628.009163433289	879.508653518213	1485.052857019766	449.501038929349	934.571430011698	934.161642790374	596.522254322662	941.079018110538	948.693137766965	322.516186116219	1002.031622662256	743.079226443604	574.710694536442	940.164496765823	630.122885555510	643.746504487738	1026.840081090470	577.778919015505	568.145353565426	1028.138850295477	465.502273876550	595.051444520055	1004.581508471969	748.059706655660	366.974666771694	936.121384420691	619.597822928573	308.990025639401	1022.832903880491	554.203512074709	384.308772659617	1029.029299955008	480.088000666107	394.708961219125	992.050416420975	404.880967199930	386.980182780158	895.070539811651	298.957983257062	332.023496512155	925.810486479762	184.870938398917	407.242981306343	943.367841563193	401.580885706047	604.850985001948	815.872303274089	378.698246355126	661.207359913948	793.295921767948	267.709303434224	620.106997723232	590.955834272030	233.398372913746	582.635806781797	741.882490113395	146.240786329467	642.205543060613	632.587150529250	170.837703262286	665.053310283372	782.361039893477	32.034761314743	681.188823512275	781.574980720587	38.402993124878	443.205200959868	857.834730153164	36.190669581971	364.765140982493	941.343958216016	94.933609500586	396.191460106922	1069.925661088618	41.316938674067	368.853154299086	970.494377925835	1085.442749779930	149.535858550162	1146.116323875135	891.755065292494	171.865831125467	923.525469911108	1071.374382415375	742.212016859099	1070.133469853345	859.164977664954	768.480635410702	
57	50.468000000000	711.519405271574	992.414301200157	459.204228866284	914.126906395699	1421.993531661095	292.442203621332	996.218405114081	1349.886405826724	463.317418504262	897.844612910884	1421.625064204886	628.708753555403	878.619070435854	1483.640090065662	450.193051064042	931.876190722739	933.263033716214	595.789614645387	941.593770007057	947.311453074027	321.778086777953	1004.076710234256	745.320575326280	572.587545144959	945.597709133717	630.921175880147	641.241719442262	1033.314180931272	580.803476516928	565.077235426586	1037.009534379712	467.734676953657	591.936827670855	1005.224480919152	746.669563069964	366.756843652016	937.200532558672	617.915081679588	308.931537785092	1023.371661489349	552.781714772358	385.240258089400	1029.562577912602	478.414524751843	395.949320813980	991.448205813084	403.053727112236	387.883716733184	893.338877955697	298.378621961754	332.382315001599	921.912268605200	183.904899171154	407.725822745928	951.729961391136	403.277859176214	601.844653088087	823.181355718659	381.407789060877	657.040120718100	800.489677500676	270.231338935044	616.535398230137	598.061436522979	236.542161284395	576.803816517541	748.520537833973	149.853153742676	639.227607590274	638.700922485371	174.878118615376	660.555853742084	788.118560960367	33.639874281823	680.494316247233	775.872393062481	38.460448246387	443.108780433780	852.178853846898	36.201456952542	364.721745468249	935.774367368017	94.808398089397	396.348507420701	1064.296887350922	40.979162018760	368.841988478009	978.065034604754	1087.136591025119	148.133981748145	1161.411388063067	900.842467733585	172.287219148888	902.685956128415	1066.441733603561	739.100893441134	1029.898148634691	842.106704240054	766.118009027067	
